<?xml version="1.0" encoding="utf-8"?>
<!-- Generator: Adobe Illustrator 24.1.1, SVG Export Plug-In . SVG Version: 6.00 Build 0)  -->
<svg version="1.1" id="Layer_1" xmlns="http://www.w3.org/2000/svg" xmlns:xlink="http://www.w3.org/1999/xlink" x="0px" y="0px"
	 viewBox="0 0 512 512" style="enable-background:new 0 0 512 512;" xml:space="preserve">
<style type="text/css">
	.st0{fill-rule:evenodd;clip-rule:evenodd;}
</style>
<g>
	<path class="st0" d="M432,32H80c-17.7,0-32,14.3-32,32v384c0,17.7,14.3,32,32,32h352c17.7,0,32-14.3,32-32V64
		C464,46.3,449.7,32,432,32z M80,0C44.6,0,16,28.6,16,64v384c0,35.4,28.6,64,64,64h352c35.4,0,64-28.6,64-64V64
		c0-35.4-28.6-64-64-64H80z"/>
	<path d="M240,64h32c17.7,0,32,14.3,32,32v96c0,17.7-14.3,32-32,32h-32c-17.7,0-32-14.3-32-32V96C208,78.3,222.3,64,240,64z"/>
	<path d="M112,64h32c17.7,0,32,14.3,32,32v224c0,17.7-14.3,32-32,32h-32c-17.7,0-32-14.3-32-32V96C80,78.3,94.3,64,112,64z"/>
	<path d="M368,64h32c17.7,0,32,14.3,32,32v320c0,17.7-14.3,32-32,32h-32c-17.7,0-32-14.3-32-32V96C336,78.3,350.3,64,368,64z"/>
</g>
</svg>
